/* XPM */
static char * fileopen_xpm[] = {
"16 16 6 1",
" 	s None	c None",
".	c black",
"X	c grey4",
"o	c white",
"O	c #c0c0c0",
"+	c #618561856185",
"                ",
"    .XXXXXX     ",
"    .ooooXoX    ",
"    .oOOOXoOX   ",
"    .oOOOXoOOX  ",
"    .oOOOXXXXX+ ",
"    .oOOOOOOOX+ ",
"    .oOOOOOOOX+ ",
"    .oOOOOOOOX+ ",
"    .oOOOOOOOX+ ",
"    .oOOOOOOOX+ ",
"    .oOOOOOOOX+ ",
"    .oOOOOOOOX+ ",
"    .........X+ ",
"     ++++++++++ ",
"                "};
