/* XPM */
static char * forwpage_xpm[] = {
"16 16 5 1",
" 	c None",
".	c black",
"X	c white",
"o	c gray",
"O	c #618561856185",
"                ",
" .... ......... ",
" .Xo.O.Xoooooo.O",
" .Xo.O .Xooooo.O",
" .Xo.O  .ooooo.O",
" .Xo.O  .Xoooo.O",
" .Xo.O .Xoo..o.O",
" .Xo.O.Xoo.OO..O",
" .Xo..Xoo.OO  .O",
" .Xo.Xoo.OO    O",
" .XoXoo.OO      ",
" .Xooo.OO       ",
" .Xoo.OO        ",
" ....OO         ",
"  OOOO          ",
"                "};
