/* XPM */
static char * right_xpm[] = {
"22 22 4 1",
" 	c None",
".	c #000000000000",
"X	c #FFFFFFFFFFFF",
"o	c #820782078207",
"                      ",
"                      ",
"                      ",
"                      ",
"                      ",
"            .         ",
"            ..        ",
"            .X.       ",
"     ........XX.      ",
"     .XXXXXXX XX.     ",
"     .         XX.    ",
"     .         X.     ",
"     ........ X.o     ",
"     ooooooo.X.o      ",
"           o..o       ",
"           o.o        ",
"           oo         ",
"           o          ",
"                      ",
"                      ",
"                      ",
"                      "};
