/* XPM */
static char*dvi[]={
"32 32 7 1",
". c None",
"# c #ff0000",
"a c #c0c0c0",
"b c #404040",
"c c #ffd700",
"d c #000000",
"e c #808080",
"................................",
"####...###......................",
"####..####......................",
"####.#####......................",
"#########....aa....aaa..........",
"########....abcaa.abbbaa........",
"#######....abcbcbabcbcbbacc.....",
"#######...abbcbccbcbcbcbcbbc....",
"########.abbbcbcccbcbcbcccbcaa..",
"########abbbbbccbbbbbbbbccbcbba.",
"####.##abbbbbcbbbccbccbbbccbbbbb",
"####..abbddbbcbbcbbbbbcbcbcbbbba",
"####.abbbbbabcbcbccbccbbbcbbbbad",
"####abbddbabbcbcbccbccbbcbbbbada",
"...abbbbbabbbcbcbbbbbcbbbccbada.",
"..abbddbabbbbcbbccbccbbbcbbbbaa.",
".abbbbbabbbbcbbbbbbbbbbcbcbbbbbb",
"abbbbbabbbbcbbbbbbcbbbbbbbcbbbba",
"eeebbaaeebbcbccbccbbbbbccbbbbbad",
"adeeebbaaebcbbcccbbbbcbbbcbbbada",
"..adeeebbabcbbbbbbbccbbcbbbbada.",
"....adeeaebbcccccccbbbbcbbbada..",
"......aeabbbcbbbbbbbbcbbbbada...",
".......abbbbbcbbbbbccbbbbada....",
"......eabbbbbbcccccbbbbbada.....",
"......abbabbbbbbbbbbbbbada......",
".......adbbabbbbbbbbbbada.......",
".........adbbabbbbbbbada........",
"...........adbbabbbbada.........",
".............adbbabada..........",
"...............adeada...........",
".................ada............"};
