/* XPM */
static char * kdvi_xpm[] = {
"34 34 192 2",
"  	c None",
". 	c #585858",
"+ 	c #575757",
"@ 	c #505050",
"# 	c #474747",
"$ 	c #3F3F3F",
"% 	c #383838",
"& 	c #2F2F2F",
"* 	c #272727",
"= 	c #212121",
"- 	c #191919",
"; 	c #121212",
"> 	c #0B0B0B",
", 	c #050505",
"' 	c #000000",
") 	c #FEFEFE",
"! 	c #BFBFBF",
"~ 	c #FFFFFF",
"{ 	c #FBFBFB",
"] 	c #FAFAFA",
"^ 	c #F9F9F9",
"/ 	c #7C7C7C",
"( 	c #9D9D9D",
"_ 	c #5E5E5E",
": 	c #E1E1E1",
"< 	c #F6F6F6",
"[ 	c #F5F5F5",
"} 	c #FCFCFC",
"| 	c #F8F8F8",
"1 	c #F4F4F4",
"2 	c #F3F3F3",
"3 	c #A6A6A6",
"4 	c #EEEEEE",
"5 	c #CFCFCF",
"6 	c #8D8D8D",
"7 	c #767676",
"8 	c #757575",
"9 	c #6F6F6F",
"0 	c #858585",
"a 	c #BCBCBC",
"b 	c #F2F2F2",
"c 	c #F0F0F0",
"d 	c #A0A0A0",
"e 	c #E9E9E9",
"f 	c #484848",
"g 	c #E4E4E4",
"h 	c #B7B7B7",
"i 	c #C4C4C4",
"j 	c #646464",
"k 	c #292929",
"l 	c #3A3A3A",
"m 	c #AAAAAA",
"n 	c #EDEDED",
"o 	c #979797",
"p 	c #E2E2E2",
"q 	c #414141",
"r 	c #ABABAB",
"s 	c #BABABA",
"t 	c #FDFDFD",
"u 	c #D3D3D3",
"v 	c #CECECE",
"w 	c #111111",
"x 	c #151515",
"y 	c #717171",
"z 	c #ECECEC",
"A 	c #959595",
"B 	c #DCDCDC",
"C 	c #ACACAC",
"D 	c #A7A7A7",
"E 	c #EBEBEB",
"F 	c #262626",
"G 	c #7B7B7B",
"H 	c #2E2E2E",
"I 	c #8F8F8F",
"J 	c #D6D6D6",
"K 	c #333333",
"L 	c #A1A1A1",
"M 	c #DEDEDE",
"N 	c #D8D8D8",
"O 	c #E7E7E7",
"P 	c #D7D7D7",
"Q 	c #A8A8A8",
"R 	c #141414",
"S 	c #848484",
"T 	c #2B2B2B",
"U 	c #E3E3E3",
"V 	c #EAEAEA",
"W 	c #6A6A6A",
"X 	c #727272",
"Y 	c #C7C7C7",
"Z 	c #252525",
"` 	c #CCCCCC",
" .	c #C3C3C3",
"..	c #DADADA",
"+.	c #D0D0D0",
"@.	c #878787",
"#.	c #B5B5B5",
"$.	c #999999",
"%.	c #A4A4A4",
"&.	c #E0E0E0",
"*.	c #F7F7F7",
"=.	c #1E1E1E",
"-.	c #5A5A5A",
";.	c #C1C1C1",
">.	c #595959",
",.	c #D8D7D7",
"'.	c #DBDBDB",
").	c #BDBDBD",
"!.	c #D9D9D9",
"~.	c #171717",
"{.	c #717176",
"].	c #D5D5D5",
"^.	c #C8C8C8",
"/.	c #D2D2D2",
"(.	c #EFEFEF",
"_.	c #5B5B5B",
":.	c #B4B4B4",
"<.	c #CACACA",
"[.	c #C9C9C9",
"}.	c #B3B3B3",
"|.	c #0A0A0A",
"1.	c #C2C2C2",
"2.	c #C6C6C6",
"3.	c #B6B6B6",
"4.	c #ACABAB",
"5.	c #979595",
"6.	c #9F9F9F",
"7.	c #D4D4D4",
"8.	c #101010",
"9.	c #E8E8E8",
"0.	c #969696",
"a.	c #D1D1D1",
"b.	c #4A4A4A",
"c.	c #242424",
"d.	c #BBBBBB",
"e.	c #C5C5C5",
"f.	c #4C4C4C",
"g.	c #E5E5E5",
"h.	c #B0B0B0",
"i.	c #8E8E8E",
"j.	c #B1B1B1",
"k.	c #787878",
"l.	c #4F4F4F",
"m.	c #F1F1F1",
"n.	c #181818",
"o.	c #989898",
"p.	c #7F7F7F",
"q.	c #050202",
"r.	c #1A1313",
"s.	c #635C5C",
"t.	c #797979",
"u.	c #AEAEAE",
"v.	c #E6E6E6",
"w.	c #CBCBCB",
"x.	c #B8B8B8",
"y.	c #2E2928",
"z.	c #0AFFFE",
"A.	c #000080",
"B.	c #0E0E0E",
"C.	c #DDDDDD",
"D.	c #424242",
"E.	c #080606",
"F.	c #2C2524",
"G.	c #07E7E9",
"H.	c #909090",
"I.	c #90908F",
"J.	c #515151",
"K.	c #0C0C0C",
"L.	c #04B3B9",
"M.	c #635958",
"N.	c #60608A",
"O.	c #646467",
"P.	c #222222",
"Q.	c #565656",
"R.	c #A5A5A5",
"S.	c #555555",
"T.	c #B5B5B4",
"U.	c #AFAFAF",
"V.	c #DFDFDF",
"W.	c #6D6D6D",
"X.	c #6E6E6E",
"Y.	c #525252",
"Z.	c #7A7A7A",
"`.	c #777777",
" +	c #737373",
".+	c #6B6B6B",
"++	c #676767",
"@+	c #464646",
"#+	c #454545",
"$+	c #444444",
"%+	c #3D3D3D",
"&+	c #C0C0C0",
"                                                                    ",
"      . . + @ # $ % & * = - ; > , ' ' ' ' ' ' '                     ",
"    . ) . ! ~ ~ ~ ~ ~ ~ ~ ~ ~ ~ ~ ~ ~ ~ { ] ^ '                     ",
"  . ) ~ . ! ~ ~ ~ ~ ~ ~ ~ ~ ~ ~ ~ ~ ~ ~ ~ { { '                     ",
"  . . . . ! ~ / ( ~ / _ / _ ( : / _ ~ _ _ < [ ' ' ' '               ",
"  + ! ! ! ! ~ ~ ~ ~ ~ ~ ~ ~ ~ ~ ) } ] ^ | 1 2 ' 3 4 '               ",
"  @ ~ ~ ~ ~ ~ ~ ~ ~ ~ ~ 5 6 7 8 9 0 a [ [ b c ' d e '               ",
"  f ~ ~ _ / g / h ~ i j k k k k $ ' l j m n 4 ' o p '               ",
"  q ~ ~ ~ ~ ~ ~ ~ r k k s n t e u ~ v w x y z ' A B '               ",
"  l ~ ~ _ ~ / ~ C k D E ) ^ ) ~ ~ ) ~ ^ d F G H I J '               ",
"  K ~ ~ ~ ~ ~ i k L ] M ) m N m J O z b P Q R $ S 5 '               ",
"  T ~ ~ ~ ~ ) $ 9 4 { ~ ) | [ [ [ n U V J b W ; X Y '               ",
"  Z ~ ~ _ g ` k  .V ..+.s  .@.#.E $.%.&.V *.! =.-.;.'               ",
"  =.~ ~ ) } >.k ~ ,.'.V [ } } O U v  .).!.: V =.& s '               ",
"  ~.~ ) _ ] k {.~ ~ ~ ~ ~ ~ 2 E ..].v ^./.J (._.=.:.'               ",
"  w t { ] ^ k {.~ ~ ~ ~ ~ 2 E ....<.^. .[.` : _.=.}.'               ",
"  |.{ ] _ /.k {./.#.v p 2 2 N M 1.2.3.4.5.6.7._.8.#.'               ",
"  , ^ | < [ k _.] 9.[.h @. .0.a m 9 I 3 3.a.N b.c.#.'               ",
"  ' *.[ 1 2 d.k ..u z e !.!.!.7.7.2.2.2.2.2.e.c.f.#.'               ",
"  ' [ 1 / h 4 k G E g.9.h.s i.3.j.k.m 3 I ).l., _.#.'               ",
"  ' 2 m.c 4 n m n.o.n !.!.!.^.^.^.^.! 2.u p.q.r.s.#.'               ",
"  ' m.(.n z E e t.k u.v.g.g <.#.}.v w.x.t.; y.z.' <.'               ",
"  ' (.A.A.A.A.v.g.{.B.' ).O P a.C.2.o.D.E.F.G.H.' 5 H               ",
"  ' n E A.9.v.A.p A.I.$ w ' f q J.=.K.=.' L.$ M.H.' $               ",
"  ' E e A.g.g A.&.A.B ..N.O.w P.F Q.R.R.R.' ' $ S.H.'               ",
"  ' 9.O A.U : A.C.A...!.A.w.T.N.3.U.h.).).2.i ' $ S.H.'             ",
"  ' v.g A.: V.A.'.A.N A.].u w.A.w.^.<.Y e.i i W.' $ S.H.'           ",
"  ' g A.A.A.A.'.!.N A.7./.a.A.A.A.^.Y e.i i i . 7 ' $ S.H.'         ",
"  ' : V.M B ..!.P J 7./.+.v w.<.^.2.i i i i i H X.7.' $ S.H.'       ",
"  ' ' ' ' ' ' ' ' ' ' ' ' ' ' ' ' ' ' ' ' ' ' ' f <.. ' $ Y.H.'     ",
"        ' H.G Z.`. +8 y W .+.+++>.. S.Y.@+#+@+$+%+! $   ' $ Y.H.'   ",
"        ' +.<.w.w.<.<.[.^.[.[.Y 2.2.2.e.1.&+).).! ! '     ' $ $ '   ",
"        ' ' ' ' ' ' ' ' ' ' ' ' ' ' ' ' ' ' ' ' ' ' '       ' '     ",
"                                                                    "};
