/* XPM */
/* Drawn  by Mark Donohoe for the K Desktop Environment */
/* See http://www.kde.org */
static char*kdvi[]={
"32 32 11 1",
"# c #000000",
"d c #a0a0a4",
"h c #ffffc0",
"i c #c05800",
"g c #ffa858",
"c c #585858",
"b c #c0c0c0",
"e c #0000c0",
"a c #ffffff",
"f c #c0c0ff",
". c None",
"..######################........",
".#a#baaaaaaaaaaaaaaaaaa#........",
"#aa#baaaaaaaaaaaaaaaaaa#........",
"####baaaaaaaaaaaaaaaaaa####.....",
"#bbbbaaaaaabc###cbaaaaa#da#.....",
"#aaabbabbb#########bbaa#da#.....",
"#aaaaaaaa###dbbbb###aaa#da#.....",
"#aaababa###aaaaaab###aa#da#.....",
"#aaaaaab##aaaccaaab##aa#da#.....",
"#aaabbac#daacabbbaad#ca#da#.....",
"#aaaaaa##aaaaaaaaaab##a#da#.....",
"#aaaaaa##aaaaabaaaab##a#da#.....",
"#aaabba##aaaabbbbbab##a#da#.....",
"#aaabaeceeeeaaaaaaad#ca#da#.....",
"#aaaaefeffffeeeaaaa##da#da#.....",
"#aaabeffaaaaafeeaa###da#da#.....",
"#aaaaeaaeeeeaafee#####a#da#.....",
"#aaaaeaeffffeafe####gh##da#.....",
"#aaabeefeeeeaafe#dd#igh#da#.....",
"#aaaaeefeeeeaaeddadd#igh#a#.....",
"#aaaaefeeaeeaafeaaadd#igh##.....",
"#aaaefaaaaaaaeeaaaaadd#igh#.....",
"#aaefaaaaaaaafaeabbbadd#igh#....",
"#aaeaeffeaaaaeeaaaaaaad##igh#...",
"#aaeaaeeaaaeaafebabbaaa#d#igh#..",
"#aaeaaffaeeaaeaaaaaaaaa#dd#igh#.",
"#aaaeeeeeaafeaaaaaaaaaa#da##igh#",
"#aaaefaaafeeaaaaaaaaaaa#da#.####",
"#####eeeee##############da#..##.",
"...#ddddddddddddddddddddda#.....",
"...#aaaaaaaaaaaaaaaaaaaaaa#.....",
"...########################....."};

