/* XPM */
static char * kdvi_xpm[] = {
/* See http://www.kde.org */
"32 32 17 1",
" 	c None",
".	c #ff0000",
"X	c black",
"o	c #400040",
"O	c white",
"+	c #000040",
"@	c #404000",
"#	c #ffffbe",
"$	c #0000c0",
"%	c #bebeff",
"&	c #c0c0c0",
"*	c yellow",
"=	c #c0c000",
"-	c #004040",
";	c #808080",
":	c #004000",
">	c #a0a0a4",
"                                ",
"                                ",
"                                ",
" ..   ..                        ",
" ..  ...     X    XXX           ",
" .. ...     oOX+ XOOOXX         ",
" .....     @#$%$%O&$%$%XX       ",
" ....     X##$%$$%$%$%$%$++     ",
" .....   X###$%$$$%$%$%$$$O++   ",
" .. ... X#*##%$$%OOOOOOO$$%$%X+ ",
" ..  ..X**##*$%OO$$O$$OO%$$%OOO+",
" ..   X*##**#$OO$%%O%%$O$%$OOO+ ",
" ..  X****###$%$%$$%$$OO%$OO#+  ",
"    X**=*&###$%$%$$%$$OO$%OO+   ",
"   X*==*@###*$%$%%OO%$OO%$$+    ",
"  X==**-##**#$OO$$O$$OOO$%OO+X  ",
" X==*=+***##$OOOOOOOOOO$%$%O#OX ",
"X====X*****$%OOOOO$OOOO%O%$OOOOX",
"X;===++****$%$$%$$OOOOO$$%OO#OX;",
" X:;===++**$O%$$$%OOO$OO%$O##X; ",
"   XX;===+*$%O%%%OO$$OO$####X>  ",
"     XX;+***$$$$$$$OOOO$###X>   ",
"      XX****$%OOOOOO%$####X;    ",
"      X******$%OOO%$$####+>     ",
"     X********$$$$$**###X>      ",
"     X;****************X>       ",
"      XX;*************:;        ",
"        XX;**********X;         ",
"          XX>*******:;          ",
"            XX;****X;           ",
"              X:;;X>            ",
"                XX>             "};
