/* XPM */
static char * kdvi_xpm[] = {
"48 48 162 2",
"  	c None",
". 	c #5C5C5C",
"+ 	c #444444",
"@ 	c #343434",
"# 	c #232323",
"$ 	c #020202",
"% 	c #FDFDFD",
"& 	c #BABABA",
"* 	c #FFFFFF",
"= 	c #FEFEFE",
"- 	c #FCFCFC",
"; 	c #FBFBFB",
"> 	c #FAFAFA",
", 	c #F8F8F8",
"' 	c #F7F7F7",
") 	c #F6F6F6",
"! 	c #F4F4F4",
"~ 	c #F3F3F3",
"{ 	c #F9F9F9",
"] 	c #F5F5F5",
"^ 	c #F1F1F1",
"/ 	c #636363",
"( 	c #F2F2F2",
"_ 	c #F0F0F0",
": 	c #585858",
"< 	c #808080",
"[ 	c #303030",
"} 	c #DCDCDC",
"| 	c #A0A0A0",
"1 	c #EFEFEF",
"2 	c #EEEEEE",
"3 	c #ECECEC",
"4 	c #8E8E8E",
"5 	c #C3C3C3",
"6 	c #EDEDED",
"7 	c #EBEBEB",
"8 	c #989898",
"9 	c #B4B4B4",
"0 	c #747474",
"a 	c #4C4C4C",
"b 	c #3B3B3B",
"c 	c #ACACAC",
"d 	c #EAEAEA",
"e 	c #E9E9E9",
"f 	c #A1A1A1",
"g 	c #E7E7E7",
"h 	c #626262",
"i 	c #DFDFDF",
"j 	c #E5E5E5",
"k 	c #E2E2E2",
"l 	c #5B5B5B",
"m 	c #E6E6E6",
"n 	c #555555",
"o 	c #4B4B4B",
"p 	c #DADADA",
"q 	c #E8E8E8",
"r 	c #D5D5D5",
"s 	c #DBDBDB",
"t 	c #A2A1A1",
"u 	c #BDBDBD",
"v 	c #333333",
"w 	c #2C2C2C",
"x 	c #E4E4E4",
"y 	c #D9D9D9",
"z 	c #737373",
"A 	c #7C7C7C",
"B 	c #D2D2D2",
"C 	c #CDCDCD",
"D 	c #6A6A6A",
"E 	c #858585",
"F 	c #E3E3E3",
"G 	c #A5A4A4",
"H 	c #D3D3D3",
"I 	c #B2B2B2",
"J 	c #B7B7B7",
"K 	c #B3B3B3",
"L 	c #A9A9A9",
"M 	c #222222",
"N 	c #D4D4D4",
"O 	c #C9C9C9",
"P 	c #1B1B1B",
"Q 	c #6B6B6B",
"R 	c #D7D7D7",
"S 	c #C8C8C8",
"T 	c #B8B8B8",
"U 	c #C1C1C1",
"V 	c #969696",
"W 	c #828282",
"X 	c #B0B0B0",
"Y 	c #B9B9B9",
"Z 	c #A8A8A8",
"` 	c #E0E0E0",
" .	c #8A8A8A",
"..	c #CECECE",
"+.	c #141414",
"@.	c #D8D8D8",
"#.	c #D0D0D0",
"$.	c #BFBFBF",
"%.	c #BBBBBB",
"&.	c #CBCBCB",
"*.	c #0D0D0D",
"=.	c #C5C5C5",
"-.	c #CCCCCC",
";.	c #A3A3A3",
">.	c #9D9D9D",
",.	c #919090",
"'.	c #7F7F7F",
").	c #9C9C9C",
"!.	c #DEDEDE",
"~.	c #A5A5A5",
"{.	c #9E9E9E",
"].	c #7E7E7E",
"^.	c #C2C2C2",
"/.	c #838383",
"(.	c #767676",
"_.	c #898989",
":.	c #919191",
"<.	c #CACACA",
"[.	c #ABABAB",
"}.	c #CFCFCF",
"|.	c #949494",
"1.	c #9B9B9B",
"2.	c #878787",
"3.	c #818181",
"4.	c #727272",
"5.	c #D6D6D6",
"6.	c #E1E1E1",
"7.	c #BEBEBE",
"8.	c #979797",
"9.	c #0C0C0C",
"0.	c #939393",
"a.	c #8F8F8F",
"b.	c #A2A2A2",
"c.	c #6D6D6D",
"d.	c #B5B5B5",
"e.	c #2A2A2A",
"f.	c #BCBCBC",
"g.	c #8D8D8D",
"h.	c #0EFEFC",
"i.	c #696969",
"j.	c #0AE2E4",
"k.	c #000080",
"l.	c #454593",
"m.	c #6060A9",
"n.	c #2B2B2B",
"o.	c #B1B1B1",
"p.	c #A4A4A4",
"q.	c #A7A7A7",
"r.	c #676767",
"s.	c #131313",
"t.	c #06AEB4",
"u.	c #7070BF",
"v.	c #4B4B8C",
"w.	c #DDDDDD",
"x.	c #73739C",
"y.	c #ADADCE",
"z.	c #636389",
"A.	c #D1D1D1",
"B.	c #00006C",
"C.	c #C4C4C4",
"D.	c #C6C6C6",
"E.	c #C7C7C7",
"                                                                                                ",
"                                                                                                ",
"          . . . . . . . . . + + + + + + @ @ @ @ # # # # # # $ $ $ $                             ",
"        . % . & * * * * * * * * * * * * * * * * = - ; > , ' ) ! ~ $                             ",
"      . % % . & * * * * * * * * * * * * * * * % - ; { , ' ] ! ~ ^ $                             ",
"    / % % % . & * * * * * * * * * * * * * = % - > { , ) ] ! ( ^ _ $                             ",
"    . . . . . & * : < * : [ : [ < } : [ = [ [ : { | : [ : [ ^ 1 2 $ $ $ $ $                     ",
"    . & & & & & * * * * * * * * * * * = - ; > , ' ) ! ~ ( _ 1 2 3 $ 4 4 _ $                     ",
"    . * * * * * * 5 < [ [ : [ | * * = - ; { , ' ] ! ~ ^ | [ 6 3 7 $ 8 8 7 $                     ",
"    . * * * * * * * * * * * * * * 9 0 a + + + b a / c _ 2 6 3 d e $ 8 4 _ $                     ",
"    + * * * [ : } [ : [ | * * f . a a a + + + b b b b b 4 7 d e g $ 4 4 7 $                     ",
"    a * * * * * * * * * * 1 / a a h i j 1 ~ g ) > k l @ @ a e g m $ 4 4 7 $                     ",
"    + * * * [ * : [ | * 1 n a o p q r s * * t u * * * k v w @ s x $ 4 4 7 $                     ",
"    a * * * * * * * * 1 n n 8 y d , % * * = = * * * * * ) z w @ j # 4 A 7 $                     ",
"    a * * * * * * * * / a 4 m * * * * * , B r C m 6 > = * ; D w + @ E A F $                     ",
"    a * * * * * * = f a o } * s G * * H t I J 6 m K m i L 8 p M # + A A F $                     ",
"    + * * * [ < = % . a N * * * * * * * * % ( 6 m p i m m 1 ] O # P Q A F $                     ",
"    a * * * * = - 9 a D - = F R S T t U * V m i L W U m m m > ; v P / Q F $                     ",
"    b * * * [ | ; Q a } 1 t X U B } k { * u m r Y L t Z U m ` >  .P + Q O $                     ",
"    @ * = % - > { n a j * * * * * * * * * ' q r r ....5 ..r r ` ( +.# / O $                     ",
"    @ = % ; : < ' a a _ * * * * * * * * % ^ k @.#.5 5 $.5 ....` ) P +./ O $                     ",
"    b % ; > , ' ) + + % * * * * * * * * ' d } #.5 5 $.%.%.U 5 r ! +.+.Q O $                     ",
"    b ; > , ' ) ! + + * * * * * * * % ' d k H &.5 $.%.J %.U 5 5 e +.*./ X $                     ",
"    @ { , ' ] ! ~ b b ' V L K =.H s ^ q u -.&.c %.Z ;.>.,.'.).T !.+.*.. X $                     ",
"    @ , ) ] : < ^ + b , j H %.X ~.L {.s ].^.c Z /.(.'._.:.%.U 5 ..*.P . X $                     ",
"    # ) ] ~ ( ^ 1 Q b 7 * * > k } p @.H ..S U & J 9 9 9 J %.U <.z *.@ . X $                     ",
"    # ! ~ ( [ | 2 f b A g [...> ..J }.I {.U & I :.|.9 J 1.2.1.-.h $ . . X $                     ",
"    # ~ ^ _ 1 6 3 H b @ d ; ..( ..{.5 1.3.{.J {.z '.J {.(.1.T 4.$ $ . . X $                     ",
"    # ^ _ 2 : [ d e 4 @ v 5.6.( F H S %.%.%.J J J J %.%.^.7.8.9.*.P . . X $                     ",
"    # 1 2 6 7 d e g m a @ D -.B {.0.}.5 Z 0.a.].%.%.b.c.d.b.e.$ # b Q . X $                     ",
"    # 2 6 7 d q g m x 6.b w D g ' _ m r <.5 Z 5 5 5 ^.f.g.e.$ *.4 h.Q Q =.$                     ",
"    # 3 7 d q g m x F 6.H @ w M Z e k 5.<.<.<.<.S K K i.9.$ P . j.4 $ Q O #                     ",
"    # 7 e k.k.k.k.l.6.` m.p + # # n.f S o.p.L <.q.r.s.$ $ b . t.. Q 4 $ O #                     ",
"    $ e q m k.x k u.v.!.k.} p  .a P P +.+.+.+.+.*.*.$ + f *.t.w . n Q 4 $ @                     ",
"    $ g m j k.k 6.i k.w.l.p y R x.f A a # +.*.P b 0 f f c c *.P @ + n Q 4 $                     ",
"    $ m x F k.` i !.k.s y.l.R l.y.U ~.z.f f f ~.~.f f ~.c $.<.<.$ @ + n Q 4 $                   ",
"    $ x F 6.k.i w.} k.y @.k.r k.H A.#.B.c ~.~.~.f c 9 C.^.U =.C.O $ @ + n Q 4 $                 ",
"    $ k 6.` k.w.} u.v.@.5.y.k.y.A.#.y.k.y.<.O S D.=.C.^.U $.$.$.C.+ $ @ + n Q 4 $               ",
"    $ 6.i k.k.k.k.l.R 5.r H k.A.}...k.k.k.O E.D.=.5 ^.U $.$.$.$.$.@ A $ @ + n Q 4 $             ",
"    $ i !.w.s p @.R 5.N H B #.}...-.&.<.S E.D.C.5 ^.U $.$.$.$.$.$.# 0 0 $ @ + n Q 4 $           ",
"    $ !.} s p @.R 5.N H A.#.}.C -.&.O S E.=.C.5 U U $.$.$.$.$.$.$.$ / 0 ..$ @ + n Q 4 $         ",
"    $ $ $ $ $ $ $ $ $ $ $ $ $ $ $ $ $ $ $ $ $ $ $ $ $ $ $ $ $ $ $ $ a / ..@ $ @ + n . 4 $       ",
"            $ A A A 0 0 0 0 0 0 0 Q Q Q Q Q Q . . . n n n a a a a a a a =.#   $ @ + n . 4 $     ",
"            $ A A 0 A A 0 0 0 0 Q Q Q Q Q Q . . . . . . a a a a a a a a & #     $ @ + n n $     ",
"            $ w.w.@.@.@.@.@.H H H H H H ......=.=.=.=.=.=.=.$.& $.& & & & $       $ @ + + $     ",
"            $ $ $ $ $ $ $ $ $ $ $ $ $ $ $ $ $ $ $ $ $ $ $ $ $ $ $ $ $ $ $ $         $ $ $       ",
"                                                                                                ",
"                                                                                                "};
