/* XPM */
/* Drawn  by Mark Donohoe for the K Desktop Environment */
/* See http://www.kde.org */
static char*kdvi[]={
"16 16 10 1",
"# c #000000",
"b c #c0c0c0",
"a c #ffffff",
"g c #c05800",
"h c #ffa858",
"c c #0000c0",
"f c #c0c0ff",
"e c #303030",
"d c #c0c0ff",
". c None",
".###########....",
"#aaaaaaaaaaa#...",
"#aaaaaaaaaaa#...",
"#abaab###baa#...",
"#aaab#aaa#ba#...",
"#aba#abbaa#a#...",
"#aaa#aaaaa#a#...",
"#aba#ccaba#a#...",
"#aacdddcc#e##...",
"#aacfddfc#gh#...",
"#aacdccaca#gh#..",
"#aacdfdfcaa#gh#.",
"#acddfadcaaa#gh#",
"#acacdcddaaa##g#",
"#aacddcaaaaa#.##",
".###########...."};

