/* XPM */
/* Drawn for the K Desktop Environment */
/* See http://www.kde.org */
static char*kghostview[]={
"16 16 5 1",
"# c #000000",
"b c #c0c0c0",
"a c #ffffff",
"c c #c0c0c0",
". c None",
".###########....",
"#aaaaaaaaaaa#...",
"#abbbbabbbaa#...",
"#aaaaaaaaaaa#...",
"#abaab###baa#...",
"#aaab#aaa#ba#...",
"#aba#aabaa#a#...",
"#aaa#aabba#a#...",
"#aaa#aaaaa#a#...",
"#aaab#aaa##a#...",
"#ccacb####a##...",
"#cacccaaaa#a#...",
"#ccaacaaaaa#a#..",
"#caccaaaaaaa#a#.",
".###########.#a#",
"..............#."};

