/* XPM */
static char * smalls_xpm[] = {
"16 16 4 1",
" 	c None",
".	c black",
"X	c #618561856185",
"o	c white",
"                ",
"                ",
"                ",
"                ",
"      ....X     ",
"        ..X     ",
"       ..X.X    ",
"       .Xo.X    ",
"       ....X    ",
"      .X   .X   ",
"      .X   .X   ",
"     ...X ...X  ",
"                ",
"                ",
"                ",
"                "};
