/* XPM */
static char * start_xpm[] = {
"22 22 4 1",
" 	c None",
".	c #000000000000",
"X	c #FFFFFFFFFFFF",
"o	c #820782078207",
"                      ",
"                      ",
"                      ",
"                      ",
"                      ",
"    .     .           ",
"    .    ..           ",
"    .   .X.           ",
"    .  .XX........    ",
"    . .XX XXXXXXX.    ",
"    ..XX         .    ",
"    . .X         .    ",
"    . o.X ........    ",
"    .  o.X.ooooooo    ",
"    .   o..o          ",
"    .    o.o          ",
"          oo          ",
"           o          ",
"                      ",
"                      ",
"                      ",
"                      "};
