<?xml version="1.0" encoding="UTF-8" standalone="no"?>
<!-- Created with Inkscape (http://www.inkscape.org/) -->
<svg
   xmlns:dc="http://purl.org/dc/elements/1.1/"
   xmlns:cc="http://web.resource.org/cc/"
   xmlns:rdf="http://www.w3.org/1999/02/22-rdf-syntax-ns#"
   xmlns:svg="http://www.w3.org/2000/svg"
   xmlns="http://www.w3.org/2000/svg"
   xmlns:sodipodi="http://sodipodi.sourceforge.net/DTD/sodipodi-0.dtd"
   xmlns:inkscape="http://www.inkscape.org/namespaces/inkscape"
   width="338"
   height="67.000023"
   id="svg2261"
   sodipodi:version="0.32"
   inkscape:version="0.45.1"
   version="1.0"
   sodipodi:docbase="F:\KDEGames"
   sodipodi:docname="okular_approved.svg"
   inkscape:output_extension="org.inkscape.output.svg.inkscape">
  <defs
     id="defs2263" />
  <sodipodi:namedview
     id="base"
     pagecolor="#ffffff"
     bordercolor="#666666"
     borderopacity="1.0"
     gridtolerance="10000"
     guidetolerance="10"
     objecttolerance="10"
     inkscape:pageopacity="0.0"
     inkscape:pageshadow="2"
     inkscape:zoom="1.9497041"
     inkscape:cx="169"
     inkscape:cy="33.500011"
     inkscape:document-units="px"
     inkscape:current-layer="layer1"
     inkscape:window-width="744"
     inkscape:window-height="598"
     inkscape:window-x="110"
     inkscape:window-y="145" />
  <metadata
     id="metadata2266">
    <rdf:RDF>
      <cc:Work
         rdf:about="">
        <dc:format>image/svg+xml</dc:format>
        <dc:type
           rdf:resource="http://purl.org/dc/dcmitype/StillImage" />
      </cc:Work>
    </rdf:RDF>
  </metadata>
  <g
     inkscape:label="Layer 1"
     inkscape:groupmode="layer"
     id="layer1"
     transform="translate(0,-985.36218)">
    <path
       style="opacity:0.8;fill:#8c0000;fill-opacity:1;fill-rule:evenodd;stroke:none;stroke-width:6;stroke-linecap:round;stroke-linejoin:bevel;stroke-miterlimit:4;stroke-dashoffset:0;stroke-opacity:1"
       d="M 8.8125,985.36218 C 3.97945,985.36218 0,989.34162 0,994.17468 L 0,1043.5184 C 0,1048.3515 3.97945,1052.3622 8.8125,1052.3622 L 329.1875,1052.3622 C 334.02055,1052.3622 338,1048.3515 338,1043.5184 L 338,994.17468 C 338,989.34162 334.02054,985.36218 329.1875,985.36218 L 8.8125,985.36218 z M 8.8125,991.36218 L 329.1875,991.36218 C 330.80029,991.36218 332,992.56184 332,994.17468 L 332,1043.5184 C 332,1045.1313 330.80033,1046.3622 329.1875,1046.3622 L 8.8125,1046.3622 C 7.19966,1046.3622 6,1045.1313 6,1043.5184 L 6,994.17468 C 6,992.56184 7.19967,991.36218 8.8125,991.36218 z M 12,993.92468 C 10.32242,993.92468 8.9375,995.3096 8.9375,996.98718 L 8.9375,1040.7059 C 8.9375,1042.3835 10.32242,1043.7684 12,1043.7684 L 326,1043.7684 C 327.67758,1043.7684 329.06253,1042.3835 329.0625,1040.7059 L 329.0625,996.98718 C 329.0625,995.3096 327.67758,993.92468 326,993.92468 L 12,993.92468 z M 11.9375,996.92468 C 11.94469,996.91749 11.96627,996.92468 12,996.92468 L 326,996.92468 C 326.06743,996.92468 326.0625,996.91972 326.0625,996.98718 L 326.0625,1040.7059 C 326.0625,1040.7734 326.06746,1040.7684 326,1040.7684 L 12,1040.7684 C 11.93254,1040.7684 11.9375,1040.7734 11.9375,1040.7059 L 11.9375,996.98718 C 11.9375,996.95345 11.93031,996.93187 11.9375,996.92468 z M 189.25,998.51843 C 186.11457,998.51847 183.3216,999.00414 180.90625,999.92468 C 178.49088,1000.8453 176.46223,1002.1578 174.8125,1003.8622 C 173.16275,1005.5666 171.91015,1007.6252 171.0625,1010.0497 C 170.21484,1012.4742 169.8125,1015.1981 169.8125,1018.2059 C 169.8125,1021.1044 170.22005,1023.7632 171.03125,1026.2059 C 171.84244,1028.6487 173.03384,1030.7723 174.65625,1032.5497 C 176.27863,1034.327 178.30337,1035.7124 180.71875,1036.7059 C 183.1341,1037.6994 185.96092,1038.1747 189.1875,1038.1747 C 192.23174,1038.1747 194.95961,1037.7164 197.375,1036.7684 C 199.79033,1035.8205 201.82288,1034.4559 203.5,1032.7059 C 205.17705,1030.9559 206.48173,1028.8544 207.375,1026.3934 C 208.26819,1023.9325 208.71871,1021.2138 208.71875,1018.2059 C 208.71871,1015.2164 208.29423,1012.4963 207.4375,1010.0809 C 206.58069,1007.6656 205.30595,1005.607 203.65625,1003.8934 C 202.00648,1002.1799 199.97783,1000.8544 197.5625,999.92468 C 195.1471,998.99503 192.3854,998.51847 189.25,998.51843 z M 27.1875,999.11218 L 13.15625,1037.6434 L 21.21875,1037.6434 L 24.625,1027.7997 L 39.3125,1027.7997 L 42.71875,1037.6434 L 50.71875,1037.6434 L 36.71875,999.11218 L 27.1875,999.11218 z M 55.96875,999.11218 L 55.96875,1037.6434 L 64.03125,1037.6434 L 64.03125,1024.0809 L 73.59375,1024.0809 C 76.0182,1024.0809 78.13799,1023.7203 79.90625,1023.0184 C 81.67445,1022.3166 83.13278,1021.3596 84.28125,1020.1747 C 85.42965,1018.9898 86.25648,1017.6526 86.8125,1016.1122 C 87.36845,1014.5718 87.65622,1012.9586 87.65625,1011.2997 C 87.65622,1009.495 87.38669,1007.857 86.8125,1006.3622 C 86.23824,1004.8674 85.34112,1003.5627 84.15625,1002.4872 C 82.97133,1001.4117 81.49216,1000.5797 79.6875,999.98718 C 77.88278,999.39477 75.74216,999.11221 73.28125,999.11218 L 55.96875,999.11218 z M 93.375,999.11218 L 93.375,1037.6434 L 101.4375,1037.6434 L 101.4375,1024.0809 L 111,1024.0809 C 113.42445,1024.0809 115.54424,1023.7203 117.3125,1023.0184 C 119.0807,1022.3166 120.53903,1021.3596 121.6875,1020.1747 C 122.8359,1018.9898 123.66273,1017.6526 124.21875,1016.1122 C 124.7747,1014.5718 125.06247,1012.9586 125.0625,1011.2997 C 125.06247,1009.495 124.79294,1007.857 124.21875,1006.3622 C 123.64449,1004.8674 122.74737,1003.5627 121.5625,1002.4872 C 120.37758,1001.4117 118.89841,1000.5797 117.09375,999.98718 C 115.28903,999.39477 113.14841,999.11221 110.6875,999.11218 L 93.375,999.11218 z M 130.78125,999.11218 L 130.78125,1037.6434 L 138.84375,1037.6434 L 138.84375,1023.0184 L 148.3125,1023.0184 L 157.25,1037.6434 L 166.3125,1037.6434 L 155.90625,1021.4559 C 157.12758,1021.1643 158.2734,1020.7099 159.3125,1020.0809 C 160.35153,1019.452 161.24345,1018.6669 162,1017.7372 C 162.75647,1016.8075 163.35283,1015.7437 163.78125,1014.5497 C 164.2096,1013.3557 164.40621,1012.0211 164.40625,1010.5809 C 164.40621,1008.8127 164.12366,1007.2437 163.53125,1005.8309 C 162.93876,1004.4182 162.04684,1003.1995 160.84375,1002.2059 C 159.64059,1001.2125 158.13929,1000.4625 156.34375,999.92468 C 154.54815,999.38695 152.43747,999.11221 150.03125,999.11218 L 130.78125,999.11218 z M 211.40625,999.11218 L 225.65625,1037.6434 L 233.84375,1037.6434 L 248,999.11218 L 239.65625,999.11218 L 231.75,1023.8622 C 231.49477,1024.719 231.24608,1025.5588 231,1026.4247 C 230.75389,1027.2906 230.55728,1028.0757 230.375,1028.7684 C 230.17446,1029.5888 229.96352,1030.3648 229.78125,1031.1122 C 229.58071,1030.3466 229.37498,1029.5445 229.15625,1028.7059 C 228.95571,1027.995 228.73696,1027.219 228.5,1026.3622 C 228.263,1025.5054 228.03644,1024.6825 227.78125,1023.8622 L 219.84375,999.11218 L 211.40625,999.11218 z M 252.1875,999.11218 L 252.1875,1037.6434 L 283.59375,1037.6434 L 283.59375,1031.3934 L 260.25,1031.3934 L 260.25,1021.2684 L 280.8125,1021.2684 L 280.8125,1015.0184 L 260.25,1015.0184 L 260.25,1005.3309 L 282.46875,1005.3309 L 282.46875,999.11218 L 252.1875,999.11218 z M 289.59375,999.11218 L 289.59375,1037.6434 L 305.1875,1037.6434 C 307.83071,1037.6434 310.27471,1037.2007 312.5625,1036.3622 C 314.85023,1035.5236 316.85414,1034.2841 318.53125,1032.6434 C 320.2083,1031.0028 321.53382,1028.9833 322.5,1026.5497 C 323.46611,1024.1161 323.93746,1021.2893 323.9375,1018.0809 C 323.93746,1014.7997 323.44007,1011.969 322.4375,1009.5809 C 321.43486,1007.1929 320.02341,1005.2242 318.21875,1003.6747 C 316.41404,1002.1252 314.27862,1000.9846 311.78125,1000.2372 C 309.28383,999.48982 306.52081,999.11221 303.53125,999.11218 L 289.59375,999.11218 z M 189.25,1004.8622 C 191.09113,1004.8622 192.69919,1005.2021 194.09375,1005.8309 C 195.48825,1006.4599 196.64581,1007.3518 197.59375,1008.5184 C 198.54164,1009.6851 199.26689,1011.0745 199.75,1012.7059 C 200.23304,1014.3375 200.46871,1016.1825 200.46875,1018.2059 C 200.46871,1020.1747 200.24996,1021.9755 199.8125,1023.6434 C 199.37496,1025.3114 198.70179,1026.7437 197.78125,1027.9559 C 196.86064,1029.1682 195.7031,1030.1161 194.28125,1030.7997 C 192.85935,1031.4833 191.15622,1031.8309 189.1875,1031.8309 C 187.34633,1031.8309 185.71613,1031.5054 184.3125,1030.8309 C 182.90884,1030.1565 181.72915,1029.2216 180.78125,1028.0184 C 179.83332,1026.8153 179.13931,1025.3739 178.65625,1023.7059 C 178.17317,1022.038 177.90624,1020.2112 177.90625,1018.2059 C 177.90624,1016.1825 178.15103,1014.3375 178.625,1012.7059 C 179.09895,1011.0745 179.80207,1009.6851 180.75,1008.5184 C 181.6979,1007.3518 182.89972,1006.4599 184.3125,1005.8309 C 185.72524,1005.2021 187.37238,1004.8622 189.25,1004.8622 z M 31.96875,1005.0497 C 31.98696,1005.0862 32.02472,1005.2659 32.125,1005.6122 C 32.22524,1005.9586 32.37628,1006.4182 32.53125,1006.9559 C 32.68618,1007.4937 32.85284,1008.0588 33.0625,1008.7059 C 33.27211,1009.3531 33.49998,1010.0054 33.71875,1010.6434 L 37.5,1021.7059 L 26.4375,1021.7059 L 30.25,1010.6434 C 30.46873,1010.0054 30.66534,1009.3531 30.875,1008.7059 C 31.08461,1008.0588 31.28253,1007.4846 31.4375,1006.9559 C 31.59243,1006.4273 31.69009,1005.9898 31.78125,1005.6434 C 31.87238,1005.2971 31.95051,1005.1044 31.96875,1005.0497 z M 297.65625,1005.3309 L 303.375,1005.3309 C 305.21612,1005.331 306.88409,1005.5888 308.40625,1006.0809 C 309.92836,1006.5732 311.24997,1007.3323 312.34375,1008.3622 C 313.43747,1009.3922 314.29554,1010.6955 314.90625,1012.2997 C 315.51689,1013.9039 315.81247,1015.8388 315.8125,1018.0809 C 315.81247,1020.2684 315.54294,1022.2033 314.96875,1023.8622 C 314.3945,1025.5211 313.57419,1026.8974 312.5625,1028.0184 C 311.55075,1029.1395 310.37628,1029.9846 309,1030.5497 C 307.62367,1031.1148 306.12238,1031.3934 304.5,1031.3934 L 297.65625,1031.3934 L 297.65625,1005.3309 z M 64.03125,1005.3622 L 72.375,1005.3622 C 74.763,1005.3622 76.55597,1005.8948 77.75,1006.9247 C 78.94399,1007.9547 79.53122,1009.4377 79.53125,1011.4247 C 79.53122,1012.3726 79.39841,1013.2567 79.125,1014.0497 C 78.85154,1014.8427 78.41794,1015.5159 77.84375,1016.0809 C 77.2695,1016.6461 76.55336,1017.0836 75.6875,1017.3934 C 74.82159,1017.7034 73.79685,1017.8622 72.59375,1017.8622 L 64.03125,1017.8622 L 64.03125,1005.3622 z M 101.4375,1005.3622 L 109.78125,1005.3622 C 112.16925,1005.3622 113.96222,1005.8948 115.15625,1006.9247 C 116.35024,1007.9547 116.93747,1009.4377 116.9375,1011.4247 C 116.93747,1012.3726 116.80466,1013.2567 116.53125,1014.0497 C 116.25779,1014.8427 115.82419,1015.5159 115.25,1016.0809 C 114.67575,1016.6461 113.95961,1017.0836 113.09375,1017.3934 C 112.22784,1017.7034 111.2031,1017.8622 110,1017.8622 L 101.4375,1017.8622 L 101.4375,1005.3622 z M 138.84375,1005.3622 L 149.1875,1005.3622 C 151.46612,1005.3622 153.20701,1005.8258 154.4375,1006.7372 C 155.66794,1007.6487 156.28122,1009.0471 156.28125,1010.9247 C 156.28122,1011.7815 156.14841,1012.5575 155.875,1013.2684 C 155.60153,1013.9794 155.18096,1014.5927 154.625,1015.1122 C 154.06898,1015.6317 153.36586,1016.0484 152.5,1016.3309 C 151.63409,1016.6135 150.60935,1016.7372 149.40625,1016.7372 L 138.84375,1016.7372 L 138.84375,1005.3622 z "
       id="rect3353"
       inkscape:export-filename="F:\KDEGames\okular_approved.png"
       inkscape:export-xdpi="90"
       inkscape:export-ydpi="90"
       sodipodi:nodetypes="ccccccccccccccccccccccccccccccccccccccssssssssssssssscccccccccccccccssssssscccccccsssssssccccccccccsssssssccccccccscccscccccccccccccccccccssssssscccsssssssssssssssccsssccccssscccssssssscccccssssscccccssssscccccsssssccc" />
  </g>
</svg>
